PathFileType	4	(X/Y/Z)	C:/Users/beibeiliu/ov580/test_trc/capture2\sequence.7_training_dense_left.trc
DataRate	CameraRate	NumFrames	NumMarkers	Units	OrigDataRate	OrigDataStartFrame	OrigNumFrames
120	120	21	19	mm	120	151	400
Frame#	Time	ThumbCMC			ThumbMCP			ThumbIP			ThumbTip			IndexMCP			IndexPIP			IndexTip			MiddleMCP			MiddlePIP			MiddleTip			RingMCP			RingPIP			RingTip			PinkyMCP			PinkyPIP			PinkyTip			BackHand1			BackHand2			BackHand3	
		X0	Y0	Z0	X1	Y1	Z1	X2	Y2	Z2	X3	Y3	Z3	X4	Y4	Z4	X5	Y5	Z5	X6	Y6	Z6	X7	Y7	Z7	X8	Y8	Z8	X9	Y9	Z9	X10	Y10	Z10	X11	Y11	Z11	X12	Y12	Z12	X13	Y13	Z13	X14	Y14	Z14	X15	Y15	Z15	X16	Y16	Z16	X17	Y17	Z17	X18	Y18	Z18	
150	1.25	-122.917	36.0942	-65.2181	-105.339	38.2689	-87.6754	-96.8825	38.5016	-109.308	-87.5336	36.1399	-130.206	-89.479	-12.596	-106.307	-60.3919	-6.23433	-94.0718	-79.9531	8.38103	-70.0816	-87.1291	-30.8973	-93.3484	-63.1664	-20.4327	-74.9543	-81.712	2.30437	-58.7103	-85.3533	-37.6904	-80.7018	-67.9231	-22.597	-60.6406	-91.224	-2.59653	-50.0199	-91.5317	-48.1232	-60.5066	-76.6895	-25.2131	-46.8569	-102.536	-4.12622	-39.6607	-140.838	-21.917	-59.6424	-152.623	-4.59739	-38.2675	-144.493	12.8105	-69.2094	
151	1.25833	-124.275	38.1518	-68.2544	-108.522	34.7479	-86.0352	-99.1845	35.2635	-114.12	-90.0868	29.7693	-131.467	-91.2668	-13.3239	-107.468	-62.0514	-9.4944	-95.9388	-80.9875	8.01378	-72.2922	-89.9104	-31.1884	-93.2127	-61.7979	-21.7722	-77.8748	-84.6455	2.79828	-59.3628	-84.2323	-40.7948	-79.1142	-67.6789	-22.7305	-61.7718	-88.6467	-3.72196	-49.2637	-90.0423	-45.6327	-62.7895	-75.2846	-26.4935	-46.4835	-98.529	-7.02587	-38.3899	-140.525	-28.6372	-61.0654	-153.302	-8.91933	-37.6525	-142.929	5.51893	-69.0228	
152	1.26667	-125.629	36.2768	-66.9716	-110.929	38.5673	-84.3124	-102.678	36.6799	-111.361	-94.3168	31.9948	-130.937	-89.8282	-12.8839	-109.576	-62.605	-6.9767	-98.7832	-78.1632	8.53894	-74.5607	-88.5392	-31.8958	-95.418	-61.617	-20.2532	-82.007	-82.8433	0.948777	-60.0493	-87.7328	-40.1771	-80.5533	-66.604	-25.3272	-63.9515	-92.2743	-3.62375	-50.2679	-89.4632	-49.1683	-60.699	-75.2309	-25.0336	-50.608	-99.2609	-7.05051	-42.5218	-140.064	-26.7034	-58.6751	-154.06	-7.02591	-39.5173	-144.663	6.70943	-66.8181	
153	1.275	-126.791	33.9996	-65.1003	-113.426	38.7629	-87.6835	-105.1	32.1764	-111.324	-97.5297	31.1725	-130.542	-94.4379	-15.8185	-107.463	-63.086	-6.72534	-99.4238	-82.4282	8.4001	-75.7492	-86.5042	-30.7849	-99.6874	-61.8143	-21.3761	-83.3776	-82.0096	3.49979	-64.3068	-88.0016	-43.2264	-78.8063	-65.3923	-22.4416	-64.425	-87.4575	-3.03519	-53.5795	-89.5118	-45.6756	-63.737	-74.2707	-24.0001	-49.1112	-97.7931	-6.99965	-42.0115	-137.215	-31.4023	-59.6559	-153.396	-9.94912	-35.3963	-146.365	5.78463	-65.5567	
154	1.28333	-127.627	32.9204	-65.5414	-114.469	37.7227	-90.6924	-106.767	33.2606	-117.137	-99.3165	26.2652	-133.452	-91.2165	-14.5126	-113.346	-65.3798	-9.1992	-100.738	-80.7913	7.85502	-78.5004	-88.4767	-32.6127	-98.3483	-61.5481	-18.7295	-88.1282	-83.678	4.40515	-65.98	-88.0774	-38.9893	-83.704	-65.4508	-21.5131	-65.9078	-89.3554	-3.63612	-54.4111	-88.0107	-47.6819	-63.452	-71.7264	-22.4409	-55.1888	-94.3156	-7.69246	-43.2854	-137.133	-28.7465	-59.7042	-150.952	-10.7993	-34.0447	-143.387	4.72633	-68.1248	
155	1.29167	-130.335	34.3842	-64.0426	-115.62	31.8363	-88.9944	-110.142	32.6355	-115.154	-104.024	28.0808	-138.724	-96.1977	-11.4719	-114.158	-65.8628	-3.92441	-106.749	-83.1592	11.5757	-81.6484	-89.7112	-30.7511	-101.956	-62.3777	-14.211	-89.6552	-81.8082	2.71484	-67.1283	-85.8884	-38.066	-86.2793	-63.0666	-22.415	-70.626	-88.6389	-2.70008	-57.1383	-83.6746	-44.2886	-67.946	-69.5518	-23.3555	-55.2561	-92.5695	-5.36891	-44.2693	-136.641	-29.6563	-60.2897	-151.715	-11.463	-35.071	-147.025	1.65463	-64.0946	
156	1.3	-131.855	32.3416	-67.1117	-119.835	32.3147	-88.489	-115.141	32.6341	-117.375	-109.463	32.5099	-137.276	-95.2076	-16.0382	-113.421	-68.6503	-6.10813	-107.832	-84.0557	11.1927	-84.0527	-87.6052	-32.149	-103.016	-62.3903	-16.1838	-93.0778	-83.7332	3.22951	-67.9745	-81.7272	-40.5307	-85.8901	-64.3763	-16.4864	-76.3267	-89.3727	-1.88035	-58.8591	-86.7836	-43.3942	-68.8133	-67.7947	-22.8635	-61.3929	-90.7991	-4.76521	-43.9302	-133.073	-31.8895	-58.8974	-147.443	-13.4394	-35.8662	-144.509	-2.05963	-65.8291	
157	1.30833	-136.106	34.0219	-66.1487	-122.68	34.4451	-86.7829	-119.343	32.8057	-117.181	-113.828	28.035	-137.735	-100.248	-13.4273	-116.64	-71.9834	-5.15803	-112.915	-85.844	14.5268	-87.2081	-91.8706	-32.3762	-101.593	-63.6293	-13.1433	-96.7375	-86.2671	4.51706	-70.0268	-82.1599	-40.1034	-84.6177	-64.2581	-16.5531	-78.1358	-89.2629	-1.07524	-59.9035	-81.6347	-44.3319	-69.4361	-66.0705	-20.9484	-63.5749	-90.8896	-4.15617	-52.2123	-130.871	-35.8921	-56.3297	-145.344	-17.6441	-32.1793	-147.068	0.645654	-64.7869	
158	1.31667	-135.51	28.623	-66.5383	-125.771	32.262	-91.563	-121.843	30.0047	-113.857	-119.149	29.3014	-136.4	-99.6778	-17.2923	-115.757	-72.9942	-4.07608	-112.874	-85.5932	13.1451	-87.3206	-88.528	-31.1543	-105.433	-64.5524	-14.6811	-99.7617	-83.088	4.73385	-72.7679	-78.834	-39.5066	-87.5521	-63.396	-15.0069	-81.039	-84.2213	0.760938	-60.8849	-78.1981	-44.3594	-69.2887	-63.8111	-21.0177	-62.0573	-91.6848	-4.48861	-50.5613	-129.912	-33.6564	-52.6049	-143.504	-19.4274	-29.1147	-147.26	-3.62368	-63.8289	
159	1.325	-136.939	29.7872	-65.0207	-127.497	30.8099	-92.6916	-125.723	28.4259	-118.467	-123.223	28.3558	-139.431	-103.658	-14.4534	-116.122	-73.2244	-0.531049	-113.33	-84.9195	11.9751	-87.7695	-90.8078	-33.119	-101.846	-64.2998	-13.1692	-96.5546	-86.1402	6.4753	-74.1054	-80.2808	-39.8322	-85.4415	-63.4106	-13.699	-83.3161	-86.3093	1.58399	-64.339	-78.7329	-42.9253	-70.6038	-65.3425	-18.238	-66.8209	-88.139	-0.946062	-54.6445	-129.237	-36.4372	-51.3187	-141.562	-21.5598	-29.4376	-145.078	-7.97121	-61.6087	
160	1.33333	-137.134	27.8014	-62.6084	-129.056	29.5273	-89.3194	-128.8	29.7922	-117.265	-127.695	27.8292	-141.869	-100.911	-18.1184	-115.36	-74.4526	-2.36104	-115.323	-88.0174	15.2704	-86.643	-88.8329	-30.7513	-104.701	-66.0578	-10.4588	-98.2696	-89.3135	6.44884	-72.4836	-82.6403	-38.6885	-86.579	-61.9012	-11.9217	-78.7848	-84.5724	1.43195	-62.9878	-77.2094	-43.0902	-67.9257	-64.8535	-13.7065	-63.6187	-93.5612	-1.476	-54.5618	-127.747	-36.4151	-56.3443	-140.295	-18.2297	-30.5694	-147.646	-6.00575	-60.8852	
161	1.34167	-138.325	26.8605	-62.3542	-132.038	32.1024	-90.0909	-131.024	28.3041	-116.443	-132.311	28.3308	-139.312	-104.59	-13.9917	-116.401	-76.8432	-0.723142	-118.445	-88.0657	14.2415	-86.4222	-91.4501	-30.3194	-101.403	-65.721	-10.6462	-97.6769	-87.0079	7.24866	-72.4896	-78.7151	-38.0585	-87.6745	-63.7865	-11.8474	-84.0306	-87.7052	1.87251	-62.082	-77.573	-41.9628	-68.2628	-64.3475	-15.4802	-67.8807	-89.2445	-1.91997	-50.6221	-124.713	-36.9922	-54.0521	-135.939	-22.9383	-27.9796	-144.116	-10.1433	-58.7228	
162	1.35	-138.477	25.5889	-62.0589	-132.91	30.4295	-89.5981	-134.368	32.0214	-113.77	-134.536	28.8199	-134.732	-105.546	-12.9835	-117.78	-76.0414	2.29944	-114.161	-89.7314	16.6324	-86.3164	-88.8976	-28.1809	-105.186	-67.6574	-3.20033	-100.147	-88.9454	10.5552	-75.0627	-78.0862	-32.5871	-91.4634	-63.1044	-10.015	-83.2489	-85.3702	3.82242	-62.9419	-73.9798	-39.5238	-72.5307	-62.0106	-12.4041	-65.8978	-92.1662	-1.15179	-50.7248	-124.098	-35.9761	-52.1338	-135.365	-22.2525	-28.9439	-146.537	-5.52908	-58.7728	
163	1.35833	-140.093	26.7055	-63.1933	-134.697	30.9379	-85.4065	-138.469	29.2644	-116.298	-140.049	30.5492	-133.934	-105.438	-11.4498	-117.428	-78.4365	4.72383	-116.394	-89.2185	18.506	-89.1387	-90.512	-24.1356	-107.192	-67.9515	-4.60356	-101.841	-89.0967	12.3038	-77.0471	-80.1387	-32.0511	-90.4505	-63.4765	-7.099	-88.2508	-88.2688	6.70665	-66.9014	-75.7597	-35.3356	-74.1769	-62.8054	-9.22867	-71.5619	-86.4472	0.28297	-53.6981	-122.957	-36.0501	-51.099	-134.938	-18.3824	-27.7002	-145.164	-4.4416	-56.7275	
164	1.36667	-139.835	24.9222	-61.7088	-136.5	30.356	-85.0218	-139.831	26.6784	-112.367	-147.083	30.1304	-132.554	-106.635	-9.42246	-120.264	-82.5084	8.91714	-120.808	-91.6989	20.0754	-91.9761	-94.0298	-21.8492	-108.516	-70.2447	0.561219	-103.681	-92.3787	11.4244	-75.5111	-79.4306	-28.647	-93.4821	-62.4196	-3.574	-87.7759	-86.2155	8.43144	-68.8644	-73.1886	-34.5146	-74.5995	-64.7826	-4.96245	-75.655	-91.47	2.80405	-58.4645	-118.634	-34.1411	-51.0353	-130.212	-20.6932	-23.5266	-143.542	-8.49741	-58.2735	
165	1.375	-141.651	25.6248	-61.464	-137.228	28.5033	-84.0182	-144.471	27.4224	-111.832	-150.921	28.6973	-131.734	-111.707	-8.20034	-118.861	-84.172	9.84504	-119.602	-94.1936	20.0594	-90.9561	-91.4677	-20.6289	-108.905	-71.7711	5.35824	-104.964	-94.1448	15.9808	-79.555	-80.7184	-23.6679	-97.9213	-66.3016	3.14153	-91.2156	-88.3858	10.7762	-70.0402	-72.999	-29.5952	-81.0429	-60.5195	-4.06367	-76.1114	-87.2625	3.45206	-60.8335	-117.378	-35.8189	-51.2911	-128.942	-21.5877	-28.1065	-141.554	-10.9832	-54.9289	
166	1.38333	-142.643	26.9735	-59.8305	-140.867	31.5237	-82.881	-151.489	31.0655	-108.925	-154.092	28.0471	-128.627	-114.216	-6.82714	-117.808	-88.0585	12.0772	-122.484	-100.187	25.4007	-92.8072	-92.5885	-18.2229	-112.82	-74.29	7.25566	-107.659	-94.8135	15.9516	-78.3698	-78.9528	-26.0572	-96.3726	-67.3817	2.66524	-94.4249	-86.4957	9.53205	-68.4262	-69.1994	-28.4562	-82.2294	-65.8341	-0.447712	-80.0835	-87.689	4.70478	-58.8744	-115.899	-35.4912	-50.7663	-127.274	-19.4169	-26.4916	-142.182	-7.24915	-57.206	
167	1.39167	-143.051	28.7069	-54.6232	-141.66	29.842	-82.5008	-153.368	33.429	-103.02	-161.164	33.0125	-125.171	-114.029	-5.60168	-121.397	-90.1005	13.8503	-122.557	-100.399	24.2747	-92.6508	-93.8914	-17.4379	-111.339	-75.874	7.21817	-110.054	-94.2	14.8173	-77.063	-83.8187	-22.7063	-97.9245	-67.6768	5.41862	-94.6917	-89.6786	10.046	-68.2956	-73.9266	-27.3494	-83.8063	-62.9956	-0.0802193	-79.7098	-87.0585	5.47276	-57.5803	-115.061	-35.2268	-53.5219	-123.843	-19.9855	-25.4663	-141.067	-7.44599	-56.2019	
168	1.4	-140.937	25.0717	-55.3021	-142.412	32.3831	-76.8478	-153.207	30.5749	-102.785	-166.123	35.5174	-120.197	-117.751	-4.41308	-119.598	-92.74	15.0541	-122.652	-100.17	25.099	-91.7736	-97.8507	-14.0882	-113.579	-78.196	9.32732	-110.851	-98.3879	16.409	-76.7076	-81.1278	-18.8322	-102.227	-72.9123	8.03372	-96.6401	-90.1829	11.7736	-71.5518	-73.4788	-26.2839	-85.2872	-67.3279	3.17871	-82.7578	-88.9588	5.52682	-63.0161	-115.079	-32.9656	-52.3735	-120.694	-21.9176	-25.2177	-143.359	-8.2852	-52.2699	
169	1.40833	-144.181	29.807	-51.6819	-142.423	29.1177	-78.3005	-155.549	29.7442	-101.053	-166.788	34.8658	-116.272	-120.36	-2.83937	-119.344	-97.9966	18.3826	-125.572	-101.708	28.4216	-95.0225	-99.2154	-15.5496	-111.867	-82.7718	13.4878	-111.463	-96.6516	19.3748	-79.7911	-86.4342	-20.7331	-100.919	-69.7683	7.07644	-96.1754	-93.2024	9.92344	-67.269	-76.9878	-24.1271	-88.5956	-65.8551	1.8103	-82.0555	-88.7134	4.16492	-61.1288	-116.038	-31.0626	-53.1253	-124.095	-20.9774	-24.4723	-141.591	-9.61398	-51.1022	
170	1.41667	-144.548	27.6503	-54.0858	-147.406	35.1249	-75.6795	-158.908	35.4341	-94.9963	-172.081	37.629	-115.971	-120.139	-0.197313	-120.8	-99.8138	19.0502	-124.933	-103.552	28.712	-92.395	-100.071	-12.6781	-114.501	-84.9693	16.3345	-112.179	-96.3661	17.0375	-78.5885	-83.258	-17.1265	-104.54	-74.6672	11.3458	-96.2984	-91.9819	12.9051	-71.1327	-75.0736	-25.2402	-88.1415	-68.5664	2.23063	-86.9244	-92.7318	3.54457	-63.1818	-112.833	-31.6452	-52.4888	-120.471	-22.0022	-24.2181	-141.696	-8.44299	-49.3805	
